inDegrees=yes
name=ik_S54_A01_T03
DataType=double
version=3
OpenSimVersion=4.3-2021-08-27-4bc7ad9
endheader
time	pelvis_tilt	pelvis_list	pelvis_rotation	pelvis_tx	pelvis_ty	pelvis_tz	hip_flexion_r	hip_adduction_r	hip_rotation_r	knee_angle_r	knee_angle_r_beta	ankle_angle_r	subtalar_angle_r	mtp_angle_r	hip_flexion_l	hip_adduction_l	hip_rotation_l	knee_angle_l	knee_angle_l_beta	ankle_angle_l	subtalar_angle_l	mtp_angle_l	lumbar_extension	lumbar_bending	lumbar_rotation	arm_flex_r	arm_add_r	arm_rot_r	elbow_flex_r	pro_sup_r	wrist_flex_r	wrist_dev_r	arm_flex_l	arm_add_l	arm_rot_l	elbow_flex_l	pro_sup_l	wrist_flex_l	wrist_dev_l
35.1799999999999	-0.3407964344977576	-2.108424896372604	-91.81736727727984	0	0.9399999999999999	0	2.730720996806431	-1.067449038044302	4.101040495891643	8.396270366147075	0.1465425627768963	0	0	0	0.4408384089750055	0.3091172045584694	-6.545915522171757	6.895026256162189	0.1203409101814882	0	0	0	0	0	0	43.75898323817194	-43.75898323817194	4.991163178050915	84.92944469383934	85.0088370958957	0	0	43.75898323817194	-43.75898323817194	4.991163178050915	84.92944469383934	85.00883709589344	0	0
35.1999999999999	-0.2217832206635992	-2.051979642008921	-91.61291223063557	0	0.9399999999999999	0	2.718509056658477	-1.35684620680372	3.747748495928898	8.661553585190811	0.1511726283994988	0	0	0	0.3550633643784575	0.5228010123002265	-6.243266541932174	6.794744190244173	0.1185906579505168	0	0	0	0	0	0	43.75910758956022	-43.75910758956022	4.99116495409643	84.929458874454	85.00883531985021	0	0	43.75910758956022	-43.75910758956022	4.99116495409643	84.929458874454	85.00883531984796	0	0
35.21999999999991	-0.03892031118312368	-1.957482408770088	-91.3663110623953	0	0.9399999999999999	0	2.886887047930869	-1.644148479945942	3.268814272613497	9.401557841113542	0.1640881391441212	0	0	0	0.2959008942829653	0.9081421323775751	-6.181542820775146	6.52150008856359	0.1138216487145364	0	0	0	0	0	0	43.75940681759458	-43.75940681759458	4.991169221101808	84.92949294382804	85.00883105284494	0	0	43.75940681759458	-43.75940681759458	4.991169221101808	84.92949294382804	85.00883105284269	0	0
35.23999999999991	0.08983739980956705	-1.905219156457347	-91.21523492180286	0	0.9399999999999999	0	3.052657997197382	-1.827186531583091	2.71821704031521	10.22269719984407	0.1784197245716838	0	0	0	0.2066524953739143	1.204766908544629	-5.908936351175004	6.296241463933382	0.1098901440462253	0	0	0	0	0	0	43.75964685357135	-43.75964685357135	4.991172663210429	84.9295204269167	85.00882761073639	0	0	43.75964685357135	-43.75964685357135	4.991172663210429	84.9295204269167	85.00882761073414	0	0
35.25999999999991	0.3988908610255481	-1.805811193906717	-90.79659045674551	0	0.9399999999999999	0	3.332948707904714	-2.207466606188628	1.797376432495992	11.28435776521544	0.1969491969759988	0	0	0	0.1867865853338772	1.669278473211738	-5.358327385381703	6.116437204993914	0.1067519677186232	0	0	0	0	0	0	43.75998018002084	-43.75998018002084	4.991177433844737	84.92955851745344	85.0088228401022	0	0	43.75998018002084	-43.75998018002084	4.991177433844737	84.92955851745344	85.00882284009995	0	0
35.27999999999992	0.7783565987914801	-1.719867103502422	-90.26447485728643	0	0.9399999999999999	0	3.718628560828069	-2.716222746036944	0.8151048320788052	12.56987990106693	0.219385790853877	0	0	0	0.416623703229146	2.204188209372808	-4.900777889125918	6.249254977348616	0.109070075151377	0	0	0	0	0	0	43.7606980701309	-43.7606980701309	4.991187533393751	84.9296391560445	85.00881274055372	0	0	43.7606980701309	-43.7606980701309	4.991187533393751	84.9296391560445	85.00881274055149	0	0
35.29999999999992	1.143681381849695	-1.687251434449847	-89.71200577168379	0	0.9399999999999999	0	3.729998453323164	-3.111125563435629	0.2928429348391825	12.57855921566951	0.2195372734705084	0	0	0	0.4924279757658858	2.768149396870318	-4.34278604066817	6.323256434165618	0.1103616442241061	0	0	0	0	0	0	43.76083284795228	-43.76083284795228	4.991189442644099	84.92965440021638	85.00881083130344	0	0	43.76083284795228	-43.76083284795228	4.991189442644099	84.92965440021638	85.0088108313012	0	0
35.31999999999992	1.503642189813083	-1.647848376883943	-89.23168694644039	0	0.9399999999999999	0	4.291450432266724	-3.706321835565449	-0.4543739264994145	14.22752041959059	0.248317075716581	0	0	0	0.5603182788409736	3.378361332110114	-3.665753608957749	6.402224040974732	0.1117398889653454	0	0	0	0	0	0	43.761148565507	-43.761148565507	4.991193896587528	84.92968996217367	85.00880637736013	0	0	43.761148565507	-43.761148565507	4.991193896587528	84.92968996217367	85.00880637735779	0	0
35.33999999999993	1.980654604753875	-1.566317306534537	-88.51634670171075	0	0.9399999999999999	0	5.789437304716957	-4.853026029612736	-1.790578047447995	15.70975852542036	0.2741870109618346	0	0	0	0.5157551788034443	4.056094683816534	-3.048814715987468	6.486183639877495	0.1132052604048525	0	0	0	0	0	0	43.76157230477024	-43.76157230477024	4.991199938918482	84.92973820641397	85.00880033502941	0	0	43.76157230477024	-43.76157230477024	4.991199938918482	84.92973820641397	85.00880033502705	0	0
35.35999999999993	2.19417136486138	-1.536789602742739	-88.15831272619441	0	0.9399999999999999	0	6.585027357830252	-5.594547230010491	-2.359805285235876	20.28345509543557	0.3540130750957714	0	0	0	0.5100805612307293	4.294250913470565	-2.721775000572041	6.562861172154483	0.1145435358053901	0	0	0	0	0	0	43.76242002169251	-43.76242002169251	4.991211771950852	84.92983268578737	85.0087885019976	0	0	43.76242002169251	-43.76242002169251	4.991211771950852	84.92983268578737	85.00878850199526	0	0
